<svg fill="none" xmlns="http://www.w3.org/2000/svg" viewBox="0 0 715.752 609.297">
<path d="M757.411,338.729a4.434,4.434,0,0,0-1.267-.2,4.332,4.332,0,0,0-4.129,3.072c-0.084.3-9.455,30.025-30.392,30.025-13.794,0-50.674-33.365-75.07-55.429-19.838-17.936-29.6-26.63-34.668-27.883a15.071,15.071,0,0,0-3.72-.465c-12.624-.014-20.938,16.345-21.325,17.105a4.319,4.319,0,0,0,7.721,3.875c0.063-.141,6.4-12.314,13.745-12.314a6.732,6.732,0,0,1,1.486.169c3.466,1.043,18.077,14.259,30.962,25.911,36.12,32.674,65.011,57.655,80.868,57.655,27.341,0,38.212-34.661,38.655-36.14A4.3,4.3,0,0,0,757.411,338.729Z" transform="translate(-44.717 -106.897)"></path><path d="M53.171,341.6a4.318,4.318,0,0,0-8.264,2.508c0.451,1.479,11.314,36.14,38.655,36.14,15.865,0,44.749-24.981,80.868-57.655,12.892-11.652,27.5-24.868,30.962-25.911a6.739,6.739,0,0,1,1.487-.169c7.347,0,13.681,12.174,13.744,12.314a4.323,4.323,0,0,0,7.728-3.875c-0.395-.76-8.707-17.105-21.332-17.105a15.072,15.072,0,0,0-3.72.465c-5.073,1.254-14.83,9.947-34.668,27.883-24.4,22.065-61.27,55.429-75.07,55.429C62.625,371.629,53.262,341.9,53.171,341.6Z" transform="translate(-44.717 -106.897)"></path><path d="M635.169,328.345c-8.531-7.721-22.374-20.233-27.242-23.572-1.7,1.029-4.558,4.5-6.186,7.609l-0.035.056a12.24,12.24,0,0,1-11,6.749,12.589,12.589,0,0,1-5.524-1.282,12.393,12.393,0,0,1-5.452-16.626c1.845-3.579,11.85-21.445,28.44-21.445a23.876,23.876,0,0,1,5.656.7c6.869,1.718,15.161,8.975,38.106,29.729,2.98,2.691,6.657,6.016,10.715,9.652,22.8,5.875,54.817,17.795,59.064,12.145,6.475-8.637-51.787-88.483-51.787-114.38s75.528-30.208,82-38.846-45.312-25.9-53.942-32.364,12.941-32.378-8.644-38.846S635.38,137.837,566.32,211.2C509.4,271.69,424.309,286.161,402.6,286.161S295.782,271.69,238.859,211.2c-69.054-73.365-101.425-110.055-123-103.574s0,32.364-8.644,38.846S46.8,170.2,53.269,178.839s82.01,12.948,82.01,38.846S77,323.428,83.477,332.064c4.248,5.65,36.253-6.27,59.058-12.145,4.064-3.636,7.742-6.961,10.729-9.652,22.945-20.755,31.23-28.011,38.063-29.716a23.054,23.054,0,0,1,5.693-.719c16.591,0,26.6,17.866,28.5,21.571a12.39,12.39,0,0,1-5.594,16.542,12.55,12.55,0,0,1-5.446,1.24,12.232,12.232,0,0,1-11-6.749l-0.035-.056c-1.627-3.114-4.487-6.58-6.178-7.609-4.875,3.339-18.69,15.823-27.475,23.756Q158.674,338.61,148.8,347.3c-18.042,22.924-43.544,52.062-39.43,60.3,6.481,12.949,49.638-2.169,58.275,17.26s-23.741,84.158-19.429,97.107a5.628,5.628,0,0,0,2.655,3.226c1.684-.169,3.41-0.324,5.22-0.479,5.692-.479,12.139-1.014,17.2-2.4,12.92-4.086,88.343-78.043,96.17-91.668-0.69-3.509-7.855-12.808-15.816-19.261a12.334,12.334,0,0,1,7.8-21.881,12.363,12.363,0,0,1,7.778,2.776c6.777,5.523,28.574,25.024,24.4,43.875-3.255,14.626-68.582,79.48-100.4,102.235,0.74,16.851-5.946,40.861,4.636,46.158,12.956,6.482,32.371-12.948,45.319-2.156s17.26,58.261,38.846,69.054,45.313-28.053,66.9-19.43c10.25,4.1,32.984,36.267,55.387,36.154,21.261-.1,42.234-32.251,51.956-36.154,21.586-8.623,45.319,30.223,66.9,19.43s25.9-58.261,38.845-69.054,32.365,8.637,45.32,2.156c10.588-5.3,3.9-29.307,4.642-46.158-31.821-22.741-97.156-87.61-100.41-102.235-4.192-18.88,17.619-38.366,24.411-43.89a12.392,12.392,0,0,1,7.763-2.762,12.338,12.338,0,0,1,7.764,21.909c-7.925,6.425-15.1,15.724-15.773,19.233,7.805,13.611,83.235,87.582,96.134,91.653,5.1,1.4,11.54,1.93,17.3,2.409,1.8,0.141,3.5.3,5.157,0.479a5.632,5.632,0,0,0,2.656-3.226c4.312-12.949-28.053-77.691-19.423-97.107s51.787-4.311,58.269-17.26c4.114-8.242-21.389-37.365-39.416-60.29Q646.419,338.56,635.169,328.345Z" transform="translate(-44.717 -106.897)"></path><path d="M648.427,532.689c-6.037-.507-12.878-1.071-18.683-2.649-15.449-4.213-99.566-87.681-101.94-97.487-1.733-7.805,11.807-21.811,18.655-27.362a4.32,4.32,0,1,0-5.446-6.707c-2.564,2.085-24.988,20.825-21.635,35.943,3.283,14.808,91.182,99.319,108.1,103.94,6.552,1.775,13.829,2.381,20.219,2.931,4.227,0.338,9.785.8,12.195,1.62-1.416,2.029-5.629,5.283-8.567,7.538-6.284,4.861-13.414,10.356-15.337,17.091-1.409,4.918-.845,11.272-0.3,17.415,0.535,6.086,1.282,14.428-1.141,16.358-11.575,9.257-71.823,56.528-122.736,78.536-33.808,14.625-77.487,27.7-109.216,27.7s-75.415-13.075-109.224-27.7C242.459,657.848,182.2,610.577,170.637,601.32c-2.424-1.93-1.677-10.272-1.141-16.358,0.549-6.143,1.113-12.5-.3-17.415-1.923-6.735-9.053-12.23-15.337-17.091-2.938-2.254-7.15-5.509-8.566-7.538,2.409-.817,7.968-1.283,12.194-1.62,6.389-.55,13.667-1.156,20.219-2.931,16.915-4.621,104.814-89.132,108.1-103.94,3.354-15.118-19.077-33.858-21.635-35.943a4.32,4.32,0,0,0-5.446,6.707c6.847,5.551,20.388,19.556,18.655,27.362-2.374,9.807-86.49,93.274-101.939,97.487-5.8,1.578-12.645,2.142-18.683,2.649-9.377.789-16.168,1.353-19.162,5.326a6.992,6.992,0,0,0-1.226,5.664c0.993,4.946,6.2,8.961,12.223,13.625,4.967,3.833,11.173,8.609,12.321,12.61,0.951,3.367.465,8.933-.007,14.287-0.838,9.356-1.7,19.035,4.34,23.868,11.708,9.369,72.781,57.261,124.7,79.72,27.651,11.948,73.155,28.4,112.648,28.4s84.989-16.457,112.64-28.4c51.928-22.459,112.993-70.35,124.708-79.72,6.031-4.833,5.171-14.512,4.347-23.868-0.486-5.354-.972-10.92-0.022-14.287,1.156-4,7.355-8.777,12.322-12.61,6.023-4.664,11.229-8.679,12.223-13.625a6.992,6.992,0,0,0-1.226-5.664C664.589,534.041,657.8,533.478,648.427,532.689Z" transform="translate(-44.717 -106.897)"></path>
</svg>

