<svg fill="none" xmlns="http://www.w3.org/2000/svg" viewBox="0 0 523.241 199.439">
<path d="M515.1,32.5C510.9,19.3,497.8,9.2,488,3.1a21.437,21.437,0,0,0-22-.2L448.5,13.1a25.842,25.842,0,0,1-25.8,0L405.2,2.9a21.437,21.437,0,0,0-22,.2c-9.8,6-22.9,16.2-27.1,29.3-7.1,22-17.6,49.1,8.8,79.6,0,0-14.1,57.6,19.4,84.7,0,0,24.5,10.6,21.2-10.2-2.1-13.5-2-63.4,30.1-65.9,32.1,2.4,32.3,52.4,30.1,65.9-3.3,20.8,21.2,10.2,21.2,10.2,33.5-27.1,19.4-84.7,19.4-84.7C532.7,81.6,522.2,54.5,515.1,32.5Z" transform="translate(-0.029 0.039)"></path><path d="M167.2,32.5C163,19.3,149.9,9.2,140.1,3.1a21.437,21.437,0,0,0-22-.2L100.6,13.1a25.842,25.842,0,0,1-25.8,0L57.3,2.9a21.437,21.437,0,0,0-22,.2c-9.8,6-22.9,16.2-27.1,29.3C1.1,54.4-9.4,81.5,17,112c0,0-14.1,57.6,19.4,84.7,0,0,24.5,10.6,21.2-10.2-2.1-13.5-2-63.4,30.1-65.9,32.1,2.4,32.3,52.4,30.1,65.9-3.3,20.8,21.2,10.2,21.2,10.2,33.5-27.1,19.4-84.7,19.4-84.7C184.8,81.6,174.2,54.5,167.2,32.5Z" transform="translate(-0.029 0.039)"></path><path d="M332.6,111.9c26.2-30.4,15.6-57.4,8.6-79.4C337,19.3,323.9,9.2,314.1,3.1a21.437,21.437,0,0,0-22-.2L274.6,13.1a25.842,25.842,0,0,1-25.8,0L231.3,2.9a21.437,21.437,0,0,0-22,.2c-9.8,6-22.9,16.2-27.1,29.3-7,22-17.6,49,8.6,79.4H332.6v0.1Z" transform="translate(-0.029 0.039)"></path>
</svg>

