<svg fill="none" xmlns="http://www.w3.org/2000/svg" viewBox="0 0 379.338 431.454">
<path d="M83.9,105.4A16.528,16.528,0,0,1,99,95.5H299a16.564,16.564,0,0,1,15,9.5l56.3,121c35.4-56.8,15.9-107.6,2.3-149.8-9.1-28.5-37.3-50.4-58.5-63.4a46.622,46.622,0,0,0-47.7-.5l-37.9,22a55.458,55.458,0,0,1-55.7,0L135,12.3a47.086,47.086,0,0,0-47.7.5c-21.2,13-49.4,35-58.6,63.4C15.2,118.3-4.3,169,31,225.9Z" transform="translate(-11.018 -5.985)"></path><path d="M288.5,128.5H109.8L42.7,281.4C38.8,322.5,40.9,392,89.8,431.6c0,0,52.9,22.9,45.8-22-4.6-29.1-4.3-137.1,65.1-142.4,69.4,5.3,69.7,113.3,65.1,142.4-7.1,44.9,45.8,22,45.8,22,50-40.4,51-112.1,46.8-152.8Z" transform="translate(-11.018 -5.985)"></path>
</svg>
