<svg fill="none" xmlns="http://www.w3.org/2000/svg" viewBox="0 0 379.3 431.454">
<path d="M466.7,161.5c-9.1-28.5-37.3-50.4-58.5-63.4a46.622,46.622,0,0,0-47.7-.5l-37.9,22a55.458,55.458,0,0,1-55.7,0l-37.8-22a47.086,47.086,0,0,0-47.7.5c-21.2,13-49.4,35-58.6,63.4-15.3,47.6-38.2,106.2,19.1,172.2,0,0-30.5,124.6,42,183.2,0,0,52.9,22.9,45.8-22-4.6-29.1-4.3-137.1,65.1-142.4,69.4,5.3,69.7,113.3,65.1,142.4-7.1,44.9,45.8,22,45.8,22,72.5-58.6,42-183.2,42-183.2C504.9,267.8,482,209.2,466.7,161.5Z" transform="translate(-105.107 -91.285)"></path>
</svg>