<svg fill="none" xmlns="http://www.w3.org/2000/svg" viewBox="0 0 510.611 713.173">
<path d="M209.533,329.709H584.989c2.065-6.559,4.306-13.457,6.62-20.519,24.135-73.768,60.6-185.242-19.678-235.9C544.5,55.977,517.865,47.559,490.509,47.559c-29.5,0-53.569,10.211-71.151,17.666-8.061,3.416-18.09,7.673-22.094,7.673s-14.038-4.258-22.1-7.673c-17.582-7.456-41.662-17.666-71.151-17.666-27.357,0-53.987,8.418-81.422,25.727-80.278,50.662-43.812,162.136-19.677,235.9C205.221,316.252,207.468,323.15,209.533,329.709Z" transform="translate(-141.956 -47.559)"></path><path d="M607.089,355.552H187.434a45.481,45.481,0,0,0,0,90.961H341.448v20.671H263.732a28.944,28.944,0,1,0,0,57.887h77.716v20.671H288.539a28.941,28.941,0,1,0,0,57.881h52.909v20.671h-28.1a28.944,28.944,0,1,0,0,57.887h28.1v20.671h-3.294a28.941,28.941,0,1,0,0,57.881H456.369a28.941,28.941,0,1,0,0-57.881h-3.294V682.18h28.1a28.944,28.944,0,1,0,0-57.887h-28.1V603.622h52.909a28.941,28.941,0,1,0,0-57.881H453.074V525.071H530.79a28.944,28.944,0,1,0,0-57.887H453.074V446.513H607.089A45.481,45.481,0,0,0,607.089,355.552Z" transform="translate(-141.956 -47.559)"></path>
</svg>

