<svg fill="none" xmlns="http://www.w3.org/2000/svg" viewBox="0 0 489.298 281.72">
<path d="M68.7,168.3c10.8-4.5,21.6-4.7,32.7-3.2,8.4,1.2,15.3,4.5,19.1,13,13.4-7,27.6-6.6,41.9-5.1,9.2,1,17.1,4.3,22,12.7,22.9-10.5,50.1-8.8,63.5,4.4,8.1-9.3,19.3-10.7,30.7-10.9,11.2-.2,22.4,0,32.4,6.6,12.1-16.3,29.5-14,46.1-12.9,7.2,0.5,14.1,3.8,21.6,6,7-16.5,22.7-14.6,37.7-14.1,4.4,0.1,8.8,1.7,13.7,2.7,1.6-7.4,6.2-12.6,14.4-13.8a30.279,30.279,0,0,1,8.5-.2c3.9,0.6,6.3-.9,8-4.3,0.8-1.6,1.9-3.1,2.8-4.7,3.2-5.7,4.3-6.2,10.6-4.4a18.509,18.509,0,0,1,13.5,13.5c6.9,24.2,7,48.3-3.2,71.8-4.2,9.7-11.2,17.1-19.7,23.4-27.6,20.5-59.1,30.7-92.7,35.4-56.6,7.9-113.6,7.9-170.6,6.3-29.8-.8-59.5-3.1-89-8.2-30-5.2-57.6-16-82.2-34.1C16.2,237.7,8.7,223.3,5.6,206.4a110.351,110.351,0,0,1,1.7-49.5c2.9-11.2,9.9-17.5,19.1-17.4,1.7,0,3.4,1.7,5,2.8a4.248,4.248,0,0,1,1,1.7c3.1,6.8,6.9,10.6,15.8,9.7C60.2,152.2,64.7,156.4,68.7,168.3Zm173.4,38.1c0.1-9.3-2.7-13.9-10-15.8a71.534,71.534,0,0,0-35.6,0c-7.2,1.8-10.6,6.3-10.1,13.5,1.3,16.9,6.6,32.6,17.6,45.8,7.1,8.5,13.6,8.3,20.7-.2C235.4,236.6,240.1,221.1,242.1,206.4Zm39.5-18.5c-6.1.9-12.3,1.4-18.2,2.9-6.8,1.8-9.7,5.8-9.4,12.8a77.7,77.7,0,0,0,17.5,46.3c6.7,8.3,13.5,8.3,20.3-.1a78.345,78.345,0,0,0,17.5-46.3c0.3-6.9-2.6-11-9.5-12.8C293.9,189.3,287.7,188.8,281.6,187.9Zm-132.3-6.8c-5.3.7-11,.9-16.5,2.1-8.2,1.8-11.7,6.3-11.1,14.7A79.871,79.871,0,0,0,138.4,242c7.4,9.4,14.6,9.4,22-.1,10-12.8,15.3-27.6,16.7-43.6,0.8-8.8-2.9-13.4-11.7-15.2C160.3,182,154.9,181.8,149.3,181.1Zm197.8-.2c0,0.2-.1.3-0.1,0.5-3.8.2-7.6,0.4-11.5,0.7a34.134,34.134,0,0,0-5.4,1c-8.1,2-11.7,6.3-11.2,14.6,1.1,16.7,6.7,31.9,17.2,44.9,7,8.6,13.7,8.7,20.6.2a78.345,78.345,0,0,0,17.5-46.3c0.3-6.7-2.5-10.8-9.1-12.6C359.3,182.4,353.1,181.9,347.1,180.9ZM90.7,173.5c-4.4.5-8.7,0.7-12.9,1.6-6.3,1.4-9.1,4.8-8.7,11.4,0.8,14.3,5.2,27.4,13.9,38.8,5.2,6.9,10.1,7,15.3.1a69.195,69.195,0,0,0,13.9-39.3c0.3-6.2-2.5-9.6-8.7-11C99.3,174.2,94.9,174,90.7,173.5Zm340,14.9c0.2-8.1-2.2-12.5-8.7-13.1a127.459,127.459,0,0,0-26.2.1c-5.9.6-8.8,5.1-8.4,11.1,1,14,5.2,27.1,13.7,38.4,5.5,7.4,10.5,7.4,15.9.1C425.4,213.8,429.3,200.9,430.7,188.4ZM47.8,206.2c1.2-1.9,1.9-2.8,2.5-3.8,5.8-9.8,8.3-20.6,8.7-31.8,0.2-4.7-2.4-7.5-7.3-7.7-2.2-.1-4.3-0.3-6.5-0.2-7.1.6-9.9,3.3-8.7,10.3a203.949,203.949,0,0,0,6.1,24.5C43.4,200.2,45.5,202.5,47.8,206.2Zm402.8,0c8.3-12.6,11.8-24.8,10.9-38-0.1-1.8-3-4.2-5.2-5-2.3-1-5.2-.8-7.9-0.6-7.3.5-10,3.3-8.8,10.7a204.062,204.062,0,0,0,5.5,23.1C446.1,199.4,448.3,202.1,450.6,206.2Z" transform="translate(-3.468 -9.619)"></path><path d="M483.2,58.4h0c-6.6-10-32.2-22.4-32.4-22.6-32-13.7-90.5-24.9-202.6-26.1C8.6,7.2,8.9,63.7,8.9,63.7h0a47.239,47.239,0,0,0-2.2,6.7C5.5,76.2,4.1,82.1,3.6,88c-1.2,13.4,5.8,21.2,19.3,21.8,4.4,0.2,8.9-.6,13.3-0.9,4.6,15.4,10,20,24.2,21.3,10.4,0.9,20.6.7,30.8-3.6,2.7,11.3,10.2,17.6,20.8,19.3,17.1,2.7,34.2,3.9,49.6-6.5,7.6,9.5,13.2,12.8,25.6,14.8a92.118,92.118,0,0,0,13.9,1.3c17,0,34.3.6,47.1-13.6,21.7,20,65.9,18.9,85.8-1,7.4,2.1,14.1,4.9,21,5.9,6.8,1,13.9.7,20.9,0.2,13.5-.8,24.9-5.2,28.6-19.7,5.3,1.1,10.2,2.4,15.3,2.9a98.972,98.972,0,0,0,15.4-.1c14.6-1.1,21.1-7,24.1-21,6.5,0,12.6.7,18.6-.2,8.5-1.1,13.5-7.1,14-15.7,0.1-1.2.2-2.5,0.2-3.7-0.3-2-3-19.2-8.9-31.1h0ZM28.2,99.3c-12.5,1.1-15.5-1.7-14.1-14.2,1.3-11,3.6-21.9,10.9-32.2a40.717,40.717,0,0,1,3.3,4.8,76.034,76.034,0,0,1,7.9,33.1C36.3,96.7,34.1,98.8,28.2,99.3Zm53.1,19.9a38.558,38.558,0,0,1-4.9.9c-2.5.1-5,0-7.5,0a1.268,1.268,0,0,0-.1.6h0c-4.3-.6-8.6-0.8-12.8-1.7-6.2-1.4-9.2-5-9-11.4A77.513,77.513,0,0,1,61.2,64.2c5.2-7.3,9.8-7.4,15-.3,9.5,12.8,13.9,27.6,14.7,43.3C91.3,114,87.9,117.6,81.3,119.2Zm65.4,16.1c-5.8,1.4-11.8,1.7-17.8,2.6h0c-5.8-.9-11.6-1.4-17.2-2.8-7.5-1.9-11-6.6-10.6-14.2a89.548,89.548,0,0,1,18-50.4c6.9-9.1,13.9-9,20.7,0,11.1,14.7,16.9,31.6,18,49.9C158.3,128.6,154.7,133.3,146.7,135.3Zm95.9-8.2c-0.7,7.8-5.3,13.1-12.7,15-7.9,2-16,2.8-23.1,4-8.4-1.1-15.7-1.5-22.9-3.1-11.2-2.5-16.6-9.4-15.8-20.9,1.6-23,8.6-44.4,22.5-63,10.1-13.4,19.5-13.3,29.8,0,12.4,16.1,18.5,34.8,21.7,54.6A50.053,50.053,0,0,1,242.6,127.1Zm73.1,14.7c-8.1,2.2-16.5,3-23.8,4.3h0c-8.6-1.1-15.9-1.5-23.1-3-10.6-2.4-16.2-9.3-15.5-20.2,1.5-23.8,8.9-45.6,23.3-64.8a24,24,0,0,1,3.8-4c7.3-6.6,13.6-6.7,20.7.1,10.9,10.3,16.2,23.8,21,37.5a104.329,104.329,0,0,1,5.9,33.7A17.04,17.04,0,0,1,315.7,141.8Zm64.7-5.7c-4.7.8-9.5,1-15.4,1.6h0c-5-.7-11-1.1-16.7-2.7-7.3-1.8-9.9-5.8-10-13.4-0.3-18.5,6.5-34.7,16.4-49.8A21.774,21.774,0,0,1,359,67c4.9-4.3,9.2-4.4,14.2-.1a22.241,22.241,0,0,1,4.4,4.8,92.2,92.2,0,0,1,16.8,46.8C395.2,129.2,391,134.2,380.4,136.1Zm50.3-97.8h0Zm8,80.8c-3.8.8-7.8,1-11.9,1.5-4.1-.5-8.3-0.7-12.4-1.7-6.7-1.4-9.8-5.1-9.6-11.9A78.536,78.536,0,0,1,419,64.1c5.3-7.5,9.9-7.5,15.3-.1,9.1,12.6,13.4,27.1,14.4,42.4C449.2,113.8,445.9,117.6,438.7,119.1ZM471,99.6c-9.5.1-13-2.8-11.6-11.6,1.1-7,2-14.1,4.1-20.9a53.431,53.431,0,0,1,3.8-9.3c1.4-2.5,3.1-2.9,4.4-4.1,1.7,3.6,4.1,7.2,5.1,11.2a178.308,178.308,0,0,1,5,22.8C483.1,96.5,480,99.5,471,99.6Z" transform="translate(-3.468 -9.619)"></path>
</svg>

