<svg width="124" height="23" viewBox="0 0 124 23" fill="none" xmlns="http://www.w3.org/2000/svg">
<path d="M116.257 6.73999C120.053 6.73999 123.043 8.66399 123.225 11.68H118.753C118.597 10.744 117.531 10.172 116.179 10.172C114.775 10.172 113.761 10.666 113.761 11.342C113.761 12.096 114.775 12.46 117.375 12.876C121.873 13.552 123.485 15.034 123.485 17.66C123.485 20.78 120.209 22.704 116.335 22.704C112.357 22.704 109.341 20.728 109.185 17.53H113.657C113.813 18.518 114.957 19.168 116.413 19.168C117.895 19.168 118.987 18.622 118.987 17.92C118.987 17.192 117.947 16.724 115.321 16.334C111.681 15.788 109.289 14.67 109.289 11.576C109.289 8.61199 112.383 6.73999 116.257 6.73999Z" fill="#172554"/>
<path d="M98.8026 22.704C95.2666 22.704 92.8486 20.13 92.8486 15.918V7.104H97.4766V15.138C97.4766 17.452 98.4126 18.726 100.155 18.726C101.975 18.726 103.067 17.296 103.067 14.93V7.104H107.695V22.34H103.067V20.78C102.157 22.002 100.753 22.704 98.8026 22.704Z" fill="#172554"/>
<path d="M83.585 6.73999C88.291 6.73999 91.671 10.094 91.671 14.722C91.671 19.35 88.291 22.704 83.585 22.704C78.879 22.704 75.499 19.35 75.499 14.722C75.499 10.094 78.879 6.73999 83.585 6.73999ZM83.585 10.692C81.401 10.692 79.971 12.382 79.971 14.722C79.971 17.062 81.401 18.752 83.585 18.752C85.769 18.752 87.199 17.062 87.199 14.722C87.199 12.382 85.769 10.692 83.585 10.692Z" fill="#172554"/>
<path d="M74.1075 0.5V22.34H69.4795V0.5H74.1075Z" fill="#172554"/>
<path d="M58.3964 22.704C54.8604 22.704 52.4424 20.13 52.4424 15.918V7.104H57.0704V15.138C57.0704 17.452 58.0064 18.726 59.7484 18.726C61.5684 18.726 62.6604 17.296 62.6604 14.93V7.104H67.2884V22.34H62.6604V20.78C61.7504 22.002 60.3464 22.704 58.3964 22.704Z" fill="#172554"/>
<path d="M43.8524 22.704C41.8504 22.704 40.3944 22.002 39.4844 20.78V22.34H34.8564V0.5H39.4844V8.664C40.3944 7.442 41.8504 6.74 43.8524 6.74C48.2204 6.74 51.2624 10.094 51.2624 14.722C51.2624 19.35 48.2204 22.704 43.8524 22.704ZM43.1244 18.752C45.3344 18.752 46.7384 17.062 46.7384 14.722C46.7384 12.382 45.3344 10.692 43.1244 10.692C40.8624 10.692 39.4064 12.382 39.4064 14.722C39.4064 17.062 40.8624 18.752 43.1244 18.752Z" fill="#172554"/>
<path d="M23.6678 22.704C19.2998 22.704 16.2578 19.35 16.2578 14.722C16.2578 10.094 19.2998 6.73999 23.6678 6.73999C25.6698 6.73999 27.1258 7.44199 28.0358 8.66399V7.10399H32.6638V22.34H28.0358V20.78C27.1258 22.002 25.6698 22.704 23.6678 22.704ZM24.3958 18.752C26.6578 18.752 28.1138 17.062 28.1138 14.722C28.1138 12.382 26.6578 10.692 24.3958 10.692C22.1858 10.692 20.7818 12.382 20.7818 14.722C20.7818 17.062 22.1858 18.752 24.3958 18.752Z" fill="#172554"/>
<path d="M0.87207 1.1499H5.60407V18.1539H16.1861V22.3399H0.87207V1.1499Z" fill="#172554"/>
</svg>
