<svg width="130" height="23" viewBox="2 -1 124 23" fill="none" xmlns="http://www.w3.org/2000/svg">
<path d="M120.105 20.4958C115.809 20.4958 112.785 17.4238 112.785 13.1278C112.785 8.85577 115.809 5.75977 120.105 5.75977C124.401 5.75977 127.425 8.83177 127.425 13.1278C127.425 13.5358 127.401 13.9918 127.329 14.4958H117.033C117.369 16.1278 118.497 17.0638 120.105 17.0638C121.329 17.0638 122.337 16.6318 122.697 15.9598H126.993C126.273 18.6478 123.513 20.4958 120.105 20.4958ZM117.009 11.7358H123.249C122.889 10.0558 121.785 9.14377 120.105 9.14377C118.425 9.14377 117.369 10.0558 117.009 11.7358Z" fill="#172554"/>
<path d="M105.275 5.75977C108.779 5.75977 111.539 7.53577 111.707 10.3198H107.579C107.435 9.45577 106.451 8.92777 105.203 8.92777C103.907 8.92777 102.971 9.38377 102.971 10.0078C102.971 10.7038 103.907 11.0398 106.307 11.4238C110.459 12.0478 111.947 13.4158 111.947 15.8398C111.947 18.7198 108.923 20.4958 105.347 20.4958C101.675 20.4958 98.8908 18.6718 98.7468 15.7198H102.875C103.019 16.6318 104.075 17.2318 105.419 17.2318C106.787 17.2318 107.795 16.7278 107.795 16.0798C107.795 15.4078 106.835 14.9758 104.411 14.6158C101.051 14.1118 98.8428 13.0798 98.8428 10.2238C98.8428 7.48777 101.699 5.75977 105.275 5.75977Z" fill="#172554"/>
<path d="M88.8263 20.4958C84.7943 20.4958 81.9863 17.3998 81.9863 13.1278C81.9863 8.85577 84.7943 5.75977 88.8263 5.75977C90.6743 5.75977 92.0183 6.40777 92.8583 7.53577V6.09577H97.1303V20.1598H92.8583V18.7198C92.0183 19.8478 90.6743 20.4958 88.8263 20.4958ZM89.4983 16.8478C91.5863 16.8478 92.9303 15.2878 92.9303 13.1278C92.9303 10.9678 91.5863 9.40777 89.4983 9.40777C87.4583 9.40777 86.1623 10.9678 86.1623 13.1278C86.1623 15.2878 87.4583 16.8478 89.4983 16.8478Z" fill="#172554"/>
<path d="M65.0129 20.1601V0.600098H73.5089C77.8529 0.600098 80.3009 2.8561 80.3009 6.4321C80.3009 7.8241 79.3649 9.4081 78.0209 9.9121C79.8929 10.5121 81.2129 12.3361 81.2129 14.2321C81.2129 17.8561 78.6209 20.1601 74.2289 20.1601H65.0129ZM69.3809 8.5201H73.3169C74.9729 8.5201 75.9329 7.8001 75.9329 6.4321C75.9329 5.0641 74.9729 4.3201 73.3169 4.3201H69.3809V8.5201ZM69.3809 16.4401H74.0369C75.7649 16.4401 76.8449 15.6721 76.8449 14.2321C76.8449 12.7921 75.7649 12.0241 74.0369 12.0241H69.3809V16.4401Z" fill="#172554"/>
<path d="M48.2656 20.1602L53.4736 13.0562L48.3376 6.09619H53.4736L56.2096 10.1282L58.8976 6.09619H63.7456L58.7296 12.9602L64.0336 20.1602H58.8976L55.9936 15.9362L53.1136 20.1602H48.2656Z" fill="#172554"/>
<path d="M39.1867 20.4962C35.9227 20.4962 33.6907 18.1202 33.6907 14.2322V6.09619H37.9627V13.5122C37.9627 15.6482 38.8267 16.8242 40.4347 16.8242C42.1147 16.8242 43.1227 15.5042 43.1227 13.3202V6.09619H47.3947V20.1602H43.1227V18.7202C42.2827 19.8482 40.9867 20.4962 39.1867 20.4962Z" fill="#172554"/>
<path d="M22.7261 20.1598V6.09577H26.9981V7.53577C27.8381 6.40777 29.1341 5.75977 30.9341 5.75977C31.7261 5.75977 32.2301 5.80777 32.7821 5.99977L32.8301 10.0078C32.2301 9.69577 31.4861 9.52777 30.6461 9.52777C28.3661 9.52777 26.9981 10.8238 26.9981 12.9598V20.1598H22.7261Z" fill="#172554"/>
<path d="M11.328 20.6402C5.30401 20.6402 0.864014 16.2962 0.864014 10.3682C0.864014 4.44019 5.30401 0.0961914 11.328 0.0961914C16.704 0.0961914 20.304 3.33619 21.096 7.46419H16.68C16.224 5.59219 14.232 4.10419 11.424 4.10419C7.87201 4.10419 5.23201 6.72019 5.23201 10.3682C5.23201 13.9922 7.87201 16.6322 11.424 16.6322C14.232 16.6322 16.536 14.7842 16.872 13.0082H21.288C20.688 16.9442 16.752 20.6402 11.328 20.6402Z" fill="#172554"/>
</svg>
