<svg width="31" height="30" viewBox="0 0 31 30" fill="none" xmlns="http://www.w3.org/2000/svg">
<path d="M10.4328 26.1784C9.87933 27.8809 9.19079 30 8.44158 30C8.00091 30 6.67772 29.1773 4.82307 26.0636C3.20256 23.3429 0.920558 16.556 0.920558 16.556C0.92047 16.5548 0.92047 16.5536 0.920558 16.5524C0.439699 14.69 0.754414 13.2346 1.83069 12.344C2.54107 11.7561 3.52075 11.4619 4.62717 11.4619C5.71408 11.4619 6.92327 11.746 8.11817 12.3151C11.3468 13.8527 13.7824 16.2541 15.809 20.0106C15.809 20.0106 15.809 20.0106 15.809 20.0122C15.6275 19.9812 15.4437 19.9656 15.2596 19.9655C12.4523 19.9655 11.3795 23.2662 10.4328 26.1784Z" fill="#1E40AF"/>
<path d="M22.0764 30C21.3274 30 20.6387 27.8809 20.0852 26.1782C19.8929 25.587 19.6943 24.9757 19.4781 24.383L19.4766 24.3789L19.4778 24.3777C16.8739 17.2274 13.682 13.1859 8.80652 10.8635C5.83521 9.44865 2.69601 9.54331 0.808314 11.1049C0.540425 11.3259 0.298243 11.5765 0.0863498 11.8519C0.0569844 11.5124 0.032836 11.1765 0.0195056 10.8486C-0.219088 4.91468 1.73217 1.35362 5.81956 0.264364C8.76789 -0.521561 11.4653 0.521435 14.861 2.45876C20.6002 5.73312 24.9981 12.0428 26.0651 18.5336C26.749 22.6942 25.9455 26.3154 23.8024 28.7313C22.9746 29.6669 22.3685 30 22.0764 30Z" fill="#2563EB"/>
<path d="M30.4977 10.8486C30.3607 14.2532 29.3072 18.1647 27.9049 21.58C27.9178 20.4719 27.8323 19.3648 27.6495 18.2719C26.5823 11.7809 22.4054 5.46076 16.854 1.79847C19.7051 0.295917 22.1042 -0.427676 24.6977 0.263202C28.785 1.35324 30.7365 4.91506 30.4977 10.8486Z" fill="#60A5FA"/>
</svg>
