<svg width="127" height="29" viewBox="0 0 127 29" fill="none" xmlns="http://www.w3.org/2000/svg">
<path d="M118.549 0C122.731 0 125.82 2.37608 126.057 5.70259H123.491C123.23 3.68292 121.4 2.13847 118.43 2.13847C115.436 2.13847 113.749 3.37403 113.749 5.08481C113.749 7.05695 115.507 7.91234 119.571 8.76773C124.251 9.76568 126.128 11.5715 126.128 14.399C126.128 17.8206 122.778 19.9115 118.549 19.9115C114.106 19.9115 110.898 17.4879 110.636 13.805H113.203C113.464 16.1098 115.531 17.7493 118.715 17.7493C121.566 17.7493 123.586 16.4425 123.586 14.5416C123.586 12.4269 121.852 11.5715 117.717 10.6923C113.416 9.78944 111.23 8.24499 111.23 5.08481C111.23 1.92462 114.343 0 118.549 0Z" fill="#172554"/>
<path d="M89.6162 0.45166H91.8022L99.1443 13.3775L106.486 0.45166H108.672V19.484H106.177V5.44142L100.047 16.2763H98.2414L92.1111 5.44142V19.484H89.6162V0.45166Z" fill="#172554"/>
<path d="M77.544 0.45166V17.2268H87.9987V19.484H75.0491V0.45166H77.544Z" fill="#172554"/>
<path d="M64.3722 19.9832C60.3804 19.9832 57.6003 16.918 57.6003 12.6886C57.6003 8.45918 60.3804 5.39404 64.3722 5.39404C66.2017 5.39404 67.5323 6.03558 68.364 7.15234V5.72669H72.5934V19.6505H68.364V18.2249C67.5323 19.3416 66.2017 19.9832 64.3722 19.9832ZM65.0375 16.3715C67.1046 16.3715 68.4353 14.8271 68.4353 12.6886C68.4353 10.5501 67.1046 9.00568 65.0375 9.00568C63.0178 9.00568 61.7347 10.5501 61.7347 12.6886C61.7347 14.8271 63.0178 16.3715 65.0375 16.3715Z" fill="#172554"/>
<path d="M57.8218 5.72666V9.36206H55.0655V19.6505H50.8361V9.36206H48.0798V5.72666H50.8361V1.59229H55.0655V5.72666H57.8218Z" fill="#172554"/>
<path d="M34.26 19.6505V5.72669H38.4894V7.15234C39.3211 6.03558 40.6041 5.39404 42.3862 5.39404C45.6177 5.39404 47.8274 7.74636 47.8274 11.5956V19.6505H43.598V12.3084C43.598 10.1937 42.7426 9.02944 41.1506 9.02944C39.4874 9.02944 38.4894 10.3363 38.4894 12.4985V19.6505H34.26Z" fill="#172554"/>
<path d="M25.7163 19.9832C21.4631 19.9832 18.4692 16.9418 18.4692 12.6886C18.4692 8.45918 21.4631 5.39404 25.7163 5.39404C29.9695 5.39404 32.9633 8.43542 32.9633 12.6886C32.9633 13.0925 32.9395 13.544 32.8683 14.043H22.6749C23.0075 15.6587 24.1243 16.5854 25.7163 16.5854C26.9281 16.5854 27.926 16.1577 28.2824 15.4924H32.5356C31.8228 18.1536 29.0903 19.9832 25.7163 19.9832ZM22.6511 11.3105H28.8289C28.4725 9.64722 27.3795 8.74431 25.7163 8.74431C24.053 8.74431 23.0075 9.64722 22.6511 11.3105Z" fill="#172554"/>
<path d="M0 19.6502V0.285156H7.5084C13.9238 0.285156 17.8919 4.25321 17.8919 9.97955C17.8919 15.7059 13.9238 19.6502 7.5084 19.6502H0ZM4.32446 15.8247H7.57969C11.2864 15.8247 13.5674 13.71 13.5674 9.97955C13.5674 6.24911 11.2864 4.11064 7.57969 4.11064H4.32446V15.8247Z" fill="#172554"/>
<path d="M125.915 24.5303V25.0742H123.47V26.3914H125.705V26.9025H123.47V28.3573H126V28.9013H122.848V24.5303H125.915Z" fill="#7B8299"/>
<path d="M118.631 27.0991V28.9013H118.009V24.5303H119.791C120.361 24.5303 120.663 24.6089 120.931 24.8252C121.193 25.0349 121.331 25.356 121.331 25.7492C121.331 26.2472 121.121 26.5814 120.656 26.8173C121.003 26.9746 121.141 27.2236 121.174 27.7413L121.2 28.1083C121.233 28.5277 121.285 28.7178 121.416 28.9013H120.656C120.604 28.7178 120.591 28.6195 120.558 28.1083L120.525 27.7872C120.486 27.3416 120.243 27.1057 119.824 27.0991H118.631ZM118.631 26.588H119.673C120.007 26.588 120.237 26.529 120.407 26.4045C120.584 26.2734 120.695 26.0441 120.695 25.795C120.695 25.3429 120.387 25.0742 119.876 25.0742H118.631V26.588Z" fill="#7B8299"/>
<path d="M115.701 27.5906H114.056L113.611 28.9013H112.949L114.554 24.5303H115.223L116.835 28.9013H116.153L115.701 27.5906ZM115.524 27.0664L114.882 25.2053L114.24 27.0664H115.524Z" fill="#7B8299"/>
<path d="M108.759 28.9013H108.104L106.99 24.5303H107.612L108.274 27.3481C108.386 27.8724 108.399 27.951 108.431 28.2001C108.445 28.128 108.451 28.0756 108.458 28.0559L108.497 27.8331C108.523 27.6955 108.582 27.4202 108.595 27.3481L109.277 24.5303H110.057L110.751 27.263C110.804 27.4858 110.909 28.01 110.935 28.2001C110.994 27.8265 111.066 27.453 111.112 27.263L111.767 24.5303H112.383L111.262 28.9013H110.607L109.847 25.9392C109.755 25.5329 109.703 25.3036 109.67 25.0742C109.631 25.3494 109.585 25.5657 109.493 25.9392L108.759 28.9013Z" fill="#7B8299"/>
<path d="M104.643 25.0742V28.9013H104.02V25.0742H102.657V24.5303H106.006V25.0742H104.643Z" fill="#7B8299"/>
<path d="M101.641 24.5303V25.0742H99.3144V26.3848H101.267V26.9091H99.3144V28.9013H98.6919V24.5303H101.641Z" fill="#7B8299"/>
<path d="M95.1273 24.4326C96.3855 24.4326 97.2439 25.3763 97.2439 26.7459C97.2439 28.05 96.3527 29.0002 95.1338 29.0002C93.9018 29.0002 93.0237 28.05 93.0237 26.7131C93.0237 25.3828 93.9018 24.4326 95.1273 24.4326ZM95.1338 24.9765C94.2557 24.9765 93.6593 25.6843 93.6593 26.7131C93.6593 27.7485 94.2557 28.4563 95.1338 28.4563C95.9988 28.4563 96.6083 27.7485 96.6083 26.7393C96.6083 25.6777 96.0185 24.9765 95.1338 24.9765Z" fill="#7B8299"/>
<path d="M91.6568 25.8809H91.0211C90.9556 25.278 90.5951 24.9831 89.9333 24.9831C89.35 24.9831 88.9765 25.2321 88.9765 25.6122C88.9765 25.9333 89.2059 26.1233 89.7629 26.2479L90.4706 26.4051C90.9883 26.5231 91.2505 26.6345 91.4602 26.8245C91.6895 27.0277 91.814 27.3226 91.814 27.6633C91.814 28.489 91.1456 29.0002 90.084 29.0002C88.9503 29.0002 88.2687 28.4235 88.177 27.375H88.8258C88.8913 28.0696 89.35 28.4563 90.1036 28.4563C90.7328 28.4563 91.1784 28.1483 91.1784 27.7092C91.1784 27.3816 90.9425 27.1653 90.4837 27.0539L89.5008 26.818C88.7013 26.6279 88.3408 26.2741 88.3408 25.6843C88.3408 24.9176 88.9765 24.4326 89.9791 24.4326C90.9818 24.4326 91.5191 24.8979 91.6568 25.8809Z" fill="#7B8299"/>
<path d="M83.3223 25.0742V28.9013H82.6997V25.0742H81.3367V24.5303H84.6854V25.0742H83.3223Z" fill="#7B8299"/>
<path d="M80.135 28.9013H79.5059L77.7169 26.1424C77.5006 25.8016 77.3696 25.5853 77.2647 25.3887C77.2713 25.4805 77.2713 25.5395 77.2713 25.5657L77.2778 25.7819L77.2844 25.9851V26.2144V28.9013H76.6946V24.5303H77.3302L79.0472 27.1909C79.211 27.4399 79.4338 27.8331 79.5649 28.0952C79.5518 27.8527 79.5518 27.6496 79.5452 27.4923V27.2761V24.5565H80.135V28.9013Z" fill="#7B8299"/>
<path d="M75.2361 24.5303V25.0742H72.7917V26.3914H75.0264V26.9025H72.7917V28.3573H75.3213V28.9013H72.1692V24.5303H75.2361Z" fill="#7B8299"/>
<path d="M68.6787 28.9013H68.1872L67.1715 26.28C67.0535 25.9458 66.9552 25.6574 66.8766 25.3756C66.8963 25.7164 66.9028 25.8147 66.9094 26.3324V28.9013H66.3196V24.5303H67.0863L68.1741 27.3285C68.3118 27.7086 68.3314 27.7544 68.4363 28.1018C68.5673 27.7086 68.6198 27.5644 68.6984 27.3416L69.7797 24.5499H70.5464V28.9013H69.9566V26.3324C69.9566 25.9851 69.9697 25.6771 69.9894 25.3756C69.8845 25.7295 69.8059 25.9785 69.6683 26.3324L68.6787 28.9013Z" fill="#7B8299"/>
<path d="M64.8616 24.5303V25.0742H62.4172V26.3914H64.6519V26.9025H62.4172V28.3573H64.9468V28.9013H61.7947V24.5303H64.8616Z" fill="#7B8299"/>
<path d="M58.3557 26.5559H60.2562V28.9019H59.7909L59.7516 28.1745C59.6009 28.4366 59.5026 28.5546 59.3322 28.6856C59.0635 28.8888 58.7096 29.0002 58.323 29.0002C57.1434 29.0002 56.3308 28.0696 56.3308 26.7197C56.3308 25.3566 57.1696 24.4326 58.4016 24.4326C59.3649 24.4326 60.0596 24.9896 60.1906 25.8678H59.5681C59.4436 25.3042 59.0111 24.9765 58.3885 24.9765C57.53 24.9765 56.9861 25.6319 56.9861 26.6607C56.9861 27.7354 57.5563 28.4497 58.4213 28.4497C58.8866 28.4497 59.2929 28.2073 59.4763 27.8272C59.5878 27.6109 59.6271 27.4143 59.6467 27.067H58.3557V26.5559Z" fill="#7B8299"/>
<path d="M54.3278 27.5906H52.6829L52.2373 28.9013H51.5754L53.181 24.5303H53.8494L55.4615 28.9013H54.78L54.3278 27.5906ZM54.1508 27.0664L53.5086 25.2053L52.8664 27.0664H54.1508Z" fill="#7B8299"/>
<path d="M50.373 28.9013H49.7439L47.9549 26.1424C47.7387 25.8016 47.6076 25.5853 47.5027 25.3887C47.5093 25.4805 47.5093 25.5395 47.5093 25.5657L47.5159 25.7819L47.5224 25.9851V26.2144V28.9013H46.9326V24.5303H47.5683L49.2852 27.1909C49.449 27.4399 49.6719 27.8331 49.8029 28.0952C49.7898 27.8527 49.7898 27.6496 49.7833 27.4923V27.2761V24.5565H50.373V28.9013Z" fill="#7B8299"/>
<path d="M44.6242 27.5906H42.9793L42.5337 28.9013H41.8718L43.4774 24.5303H44.1458L45.7579 28.9013H45.0763L44.6242 27.5906ZM44.4472 27.0664L43.805 25.2053L43.1628 27.0664H44.4472Z" fill="#7B8299"/>
<path d="M38.7954 28.9013H38.3039L37.2882 26.28C37.1702 25.9458 37.0719 25.6574 36.9933 25.3756C37.013 25.7164 37.0195 25.8147 37.0261 26.3324V28.9013H36.4363V24.5303H37.203L38.2908 27.3285C38.4285 27.7086 38.4481 27.7544 38.553 28.1018C38.684 27.7086 38.7365 27.5644 38.8151 27.3416L39.8964 24.5499H40.6631V28.9013H40.0733V26.3324C40.0733 25.9851 40.0864 25.6771 40.1061 25.3756C40.0012 25.7295 39.9226 25.9785 39.785 26.3324L38.7954 28.9013Z" fill="#7B8299"/>
<path d="M29.0754 28.9013V24.5303H30.7662C31.3363 24.5303 31.6181 24.5893 31.8868 24.7727C32.1817 24.9628 32.3389 25.2773 32.3389 25.6574C32.3389 26.0965 32.1489 26.3914 31.7229 26.6076C32.2341 26.7977 32.47 27.1188 32.47 27.643C32.47 28.069 32.2865 28.436 31.9654 28.6457C31.6771 28.8357 31.3428 28.9013 30.681 28.9013H29.0754ZM29.6652 26.4045H30.8383C31.1463 26.4045 31.3363 26.3521 31.4805 26.2341C31.6246 26.1161 31.7033 25.9327 31.7033 25.7361C31.7033 25.546 31.6181 25.3625 31.4805 25.2446C31.3363 25.1266 31.1463 25.0742 30.8383 25.0742H29.6652V26.4045ZM29.6652 28.3573H30.9365C31.4936 28.3573 31.8343 28.0821 31.8343 27.6299C31.8343 27.1712 31.5329 26.9156 31.0021 26.9156H29.6652V28.3573Z" fill="#7B8299"/>
<path d="M26.735 27.5906H25.0902L24.6445 28.9013H23.9827L25.5882 24.5303H26.2566L27.8687 28.9013H27.1872L26.735 27.5906ZM26.5581 27.0664L25.9159 25.2053L25.2736 27.0664H26.5581Z" fill="#7B8299"/>
<path d="M20.6924 24.5303V28.3573H22.9663V28.9013H20.0698V24.5303H20.6924Z" fill="#7B8299"/>
</svg>
